<mxfile host="app.diagrams.net" modified="2024-12-03T07:20:04.769Z" agent="Mozilla/5.0 (Macintosh; Intel Mac OS X 10_15_7) AppleWebKit/537.36 (KHTML, like Gecko) Chrome/130.0.0.0 Safari/537.36" version="24.6.5" etag="GivM8z-KMV3QJwalsUEH" type="github">
  <diagram name="Page-1" id="UuMVGaDHInBHQlRiovN2">
    <mxGraphModel>
      <root>
        <mxCell id="0" />
        <mxCell id="1" parent="0" />
      </root>
    </mxGraphModel>
  </diagram>
</mxfile>
